<?xml version="1.0" encoding="utf-8"?>
<svg version="1.1" id="zdic.net" xmlns="http://www.w3.org/2000/svg" xmlns:xlink="http://www.w3.org/1999/xlink" x="0px" y="0px"
	 viewBox="0 0 400 400" style="enable-background:new 0 0 400 400;" xml:space="preserve">
<g>
	<path d="M140.95,241.75c9.63,0,19.47-0.04,29.3,0.02c5.62,0.03,11.24,0.23,16.86,0.37c3.66,0.09,6.95,1.04,9.11,4.26
		c2.05,3.06,1.23,5.62-2.13,7.05c-9.71,4.13-19.78,3.16-29.9,2.29c-6.2-0.53-12.45-0.37-18.68-0.53c-2.62-0.07-3.67,1.06-3.78,3.81
		c-0.29,7.59-0.9,15.17-1.43,23.62c8.18,0,16.1-0.12,24.02,0.03c7.82,0.16,15.69,0.1,23.42,1.08c5.07,0.64,5.92,2.6,5.42,7.59
		c-0.09,0.91-1.28,2.25-2.18,2.47c-6.26,1.49-12.54,3.45-18.9,3.89c-8.82,0.61-17.72,0.01-26.59-0.07c-1.35-0.01-2.7,0-4.43,0
		c-0.28,7.16-0.69,14-0.77,20.84c-0.13,10.37,0.25,20.76-0.13,31.12c-0.3,8.07-1.45,16.11-2.17,24.17
		c-0.17,1.89-0.88,2.96-2.98,3.01c-2.01,0.05-3.77,0.52-4.77-2.17c-2.79-7.52-3.54-15.3-3.39-23.21
		c0.32-16.37,0.73-32.73,1.23-49.09c0.08-2.73-0.72-3.9-3.48-4.55c-7.28-1.71-14.44-3.99-21.72-5.69c-3.1-0.72-5.03-2.33-6.6-4.92
		c-4.36-7.22-6.29-15.21-7.31-23.42c-1.56-12.56-2.42-25.14,1.02-37.58c1.1-3.99,3.17-5.6,7.23-5.36c0.8,0.05,2,1.06,2.23,1.85
		c1,3.45,1.86,6.96,2.49,10.5c0.44,2.44,0.43,4.96,0.66,7.87c8,0.37,15.81,0.73,24.48,1.13c0-9.34,0-18.49,0-28.27
		c-6.5-1.36-13.75-3.1-21.09-4.34c-11.44-1.95-19.17-8.27-21.49-19.54c-2.07-10.06-0.5-20.24,3.32-29.78
		c0.89-2.22,3.8-3.79,6.04-5.26c5.7-3.75,12.2-4.85,18.88-5.32c9.37-0.67,9.4-0.72,9.5-10.08c0.06-5.24,0.01-10.48,0.01-16.75
		c-7.34,0-15.02,0.12-22.7-0.04c-5.96-0.13-11.96-0.29-17.87-1.04c-3.74-0.47-6.54-2.94-7.88-6.71c-0.94-2.64-0.57-4.3,2.48-5.37
		c6.78-2.39,13.74-2.25,20.74-2.21c8.45,0.06,16.9,0.01,25.55,0.01c0-8.62,0-16.19,0-24.67c-4.23,0-8.31,0-12.39,0
		c-6.87,0-13.75,0.18-20.61-0.09c-2.8-0.11-5.64-0.95-8.32-1.88c-3.05-1.06-4.17-3.64-4.36-6.79c-0.2-3.3,2.21-4.16,4.48-5.12
		c7.31-3.12,14.9-2.24,22.5-1.58c4.47,0.39,8.97,0.41,13.46,0.44c3.6,0.02,6.01-1.54,5.96-5.52c-0.07-5.86-0.23-11.72-0.34-17.58
		c-0.13-6.73,1.13-13.08,4.97-18.77c6.62,3.6,8.79,9.26,7.61,17.62c-0.85,6.01-1.11,12.12-1.42,18.2c-0.14,2.74,1.2,4.16,4.3,4.18
		c5.86,0.03,11.73,0.4,17.59,0.75c2.13,0.13,3.04-0.75,2.97-2.77c-0.16-4.11-0.18-8.23-0.59-12.31c-0.48-4.77,0.73-7.65,4.48-9.81
		c2.37-1.37,4.35-1.42,5.3,1.49c2.19,6.71,5.13,13.35,6.14,20.25c2.06,14.03,1.36,28.15-1.17,42.16c-0.88,4.86-3.27,8.62-7.71,10.25
		c-6.5,2.37-13.23,4.17-19.97,5.82c-3.22,0.79-6.66,0.66-10.21,0.96c0,7.82,0,15.5,0,23.49c7.06,1.07,14.07,2.08,21.07,3.19
		c13.68,2.17,21.93,10.65,23.52,24.4c0.91,7.88-0.55,15.4-4.01,22.56c-4.09,8.45-11.41,12.22-20.09,13.9
		c-4.04,0.78-8.19,0.93-12.24,1.66c-0.94,0.17-1.77,1.48-2.44,2.42c-0.3,0.42-0.08,1.21-0.08,1.84
		C140.95,224.19,140.95,232.3,140.95,241.75z M130.09,199.83c10.11,0.16,17.6-1.4,25.15-4.26c5.52-2.09,9.14-5.18,8.47-11.7
		c-0.29-2.84,0.05-5.74-0.18-8.59c-0.7-8.7-5.47-13.53-14.16-13.73c-11.45-0.26-22.97-0.71-34.36,0.21
		c-5.27,0.43-10.29,3.89-15.4,6.04c-0.36,0.15-0.6,0.78-0.76,1.23c-2.72,8.18-1.87,16,2.66,23.33c0.58,0.93,1.95,1.48,3.05,1.97
		C113.38,198.2,122.65,199.83,130.09,199.83z M135.87,107.35c6.3-0.61,12.23-0.55,17.84-1.88c7-1.66,10.86-14.18,6.61-20.05
		c-0.74-1.02-2.11-2.08-3.28-2.19c-6.98-0.61-13.98-0.95-21.17-1.38C135.87,90.77,135.87,98.56,135.87,107.35z M103.45,256.07
		c0,3.76-0.11,7.34,0.02,10.91c0.49,13.79,11.43,16.05,22.1,14.92c0.84-0.09,2.23-1.51,2.21-2.29c-0.15-7.81-0.53-15.62-0.86-23.54
		C118.89,256.07,111.34,256.07,103.45,256.07z"/>
	<path d="M242.86,159.87c0.27-4.2-0.97-5.54-4.11-6.05c-7.17-1.16-12.85-5.23-17.82-10.35c-3.81-3.93-8.37-6.24-13.9-6.44
		c-4.65-0.17-8.82,0.38-11.56,5.02c-1.7,2.87-4.15,5.31-6.34,7.87c-0.97,1.13-1.97,2.65-3.24,3.02c-2.6,0.76-5.75,1.78-7.97,0.9
		c-1.31-0.52-2.13-4.62-1.71-6.83c2.9-15.13,23.99-31.23,41.41-22.32c6.91,3.54,12.71,8.29,18.53,13.19
		c1.21,1.02,2.41,2.03,4.14,3.48c0.11-1.66,0.23-2.6,0.23-3.53c-0.09-16.85,0.18-33.67-1.61-50.51
		c-1.13-10.64-0.41-21.52,4.13-31.62c2.86-6.38,6.82-11.82,13.05-15.47c5.27-3.09,10.14-6.9,15.54-9.73
		c2.08-1.09,5.34-1.02,7.68-0.28c3.34,1.06,3.71,5.5,0.85,7.78c-4.97,3.97-10.13,7.7-15.15,11.62c-1.86,1.45-3.66,3.03-5.28,4.75
		c-3.52,3.74-5.38,7.87-5.22,13.41c0.83,29.09,1.23,58.2,1.78,87.3c0.02,1.23,0.15,2.46,0.28,4.61c7.14,0,14.19-0.04,21.24,0.01
		c5.22,0.04,10.47-0.18,15.64,0.4c4.06,0.45,7.19,3,8.25,7.17c0.25,0.98-0.63,3.12-1.39,3.35c-4.62,1.38-9.33,3.22-14.05,3.31
		c-20.33,0.41-40.67,0.44-61,0.21c-6.07-0.07-12.11-1.54-18.19-2.2c-2.72-0.3-2.68-2.22-2.76-4.04c-0.09-2.04-1.5-4.8,1.83-5.55
		c4.46-1.01,8.98-2.15,13.51-2.38C227.33,159.59,235.07,159.87,242.86,159.87z"/>
	<path d="M256.35,208.13c0.43,9.07-1.6,17.97,3.16,26.05c0.92,1.57,1.91,3.2,3.22,4.43c2.45,2.3,5.02,4.54,7.8,6.43
		c14.23,9.72,17.82,23.61,14.72,39.47c-1.39,7.11-4.12,14.17-7.44,20.64c-11.02,21.44-23.34,42.14-37.02,62.01
		c-2.9,4.21-6.14,8-11.34,9.22c-6.94,1.64-9.45-1.35-7.63-7.76c1.32-4.63,3.93-9.27,7.1-12.92c15.8-18.23,29.47-37.78,39.01-60.04
		c0.39-0.92,0.68-1.89,1.13-2.77c4.96-9.75,3.16-19.62,0.42-29.46c-0.34-1.21-1.36-2.33-2.29-3.26
		c-5.5-5.44-11.24-10.66-16.59-16.25c-5.91-6.18-9.1-13.56-8.93-22.32c0.06-3.2-0.45-6.47-1.12-9.62c-0.56-2.59-2.13-4.28-5.29-4.16
		c-8.11,0.3-16.23,0.49-24.34,0.45c-4.34-0.03-8.77-0.21-12.96-1.17c-2.13-0.49-4.39-2.51-5.6-4.45c-1.99-3.18-0.88-4.95,2.55-6.58
		c4.97-2.36,10.09-3.07,15.58-3.03c23.86,0.17,47.73,0.04,71.6,0.1c4.74,0.01,9.49,0.22,14.21,0.68c2.03,0.19,4.23,0.85,5.91,1.97
		c4.77,3.17,4.32,8.05-0.77,10.37c-7.78,3.55-15.85,2.55-23.94,1.51C270.53,206.79,263.59,206.25,256.35,208.13z"/>
	<path d="M178.72,122.43c-2.31-4-2.61-8.18-0.89-12.24c4.6-10.86,11.76-19.91,20.5-27.74c3.26-2.93,6.94-3.87,11.38-2.8
		c7.96,1.92,15.34,5.1,20.58,11.39c2.9,3.48,4.69,8.1,6.21,12.47c1.32,3.8-2.83,7.27-6.71,5.86c-1.93-0.7-3.79-1.91-5.33-3.29
		c-2.51-2.24-4.58-4.97-7.12-7.16c-1.84-1.6-4.02-2.98-6.27-3.89c-3.21-1.31-5.59-0.63-7.58,2.93c-3.34,5.96-7.27,11.63-11.33,17.14
		C188.95,119.42,184.42,121.96,178.72,122.43z"/>
	<path d="M263.31,144.6c0-3.38-0.08-6.25,0.05-9.1c0.04-0.9,0.43-2.02,1.06-2.61c6.11-5.68,12.23-11.36,18.54-16.81
		c1.1-0.95,3.36-1.47,4.75-1.05c15.06,4.52,26.46,13.61,33.3,27.91c1.09,2.27,2.56,4.98-0.28,7.5c-2.97,2.63-6.08,2.29-8.97,0.47
		c-3.04-1.91-5.74-4.37-8.52-6.67c-5.74-4.76-11.44-9.58-17.16-14.39c-5.7,4.9-8.55,12.62-16.31,14.67
		C267.83,145.03,265.65,144.6,263.31,144.6z"/>
	<path d="M261.63,101.23c0-3.08-0.06-5.94,0.04-8.8c0.03-0.8,0.3-1.86,0.86-2.32c5.37-4.42,10.77-8.79,16.29-13
		c0.84-0.65,2.42-0.84,3.51-0.59c17.72,4.15,30.71,14.31,38.58,30.8c0.63,1.33,1.18,2.92,1.05,4.32c-0.14,1.53-0.75,3.49-1.85,4.31
		c-1.14,0.85-3.4,1.18-4.68,0.61c-1.97-0.87-3.62-2.58-5.21-4.15c-4.45-4.38-8.77-8.89-13.18-13.32c-3.81-3.82-8.29-6.32-13.71-7.09
		c-2.83-0.4-4.81,0.1-6.58,2.79C272.46,101.28,267.86,103.09,261.63,101.23z"/>
</g>
</svg>
